<?xml version="1.0" encoding="UTF-8"?>
<svg width="80px" height="72px" viewBox="0 0 80 72" version="1.1" xmlns="http://www.w3.org/2000/svg" xmlns:xlink="http://www.w3.org/1999/xlink">
    <!-- Generator: Sketch 43.1 (39012) - http://www.bohemiancoding.com/sketch -->
    <title>Shape</title>
    <desc>Created with Sketch.</desc>
    <defs></defs>
    <g id="Page-1" stroke="none" stroke-width="1" fill="none" fill-rule="evenodd">
        <path d="M16,0 C7.715732,0 1,6.71573 1,15 C1,23.28427 7.715732,30 16,30 C24.284275,30 31,23.28427 31,15 C31,6.71573 24.284275,0 16,0 Z M48,0 C39.715725,0 33,6.71573 33,15 C33,23.28427 39.715725,30 48,30 C56.284268,30 63,23.28427 63,15 C63,6.71573 56.284268,0 48,0 Z M0,33 L0,72 L62,72 L62,33 L0,33 Z M80,35 C71.542311,36.0373 65,43.2531 65,52 C65,60.7469 71.542311,67.9627 80,69 L80,35 Z" id="Shape" fill="#000000" fill-rule="nonzero"></path>
    </g>
</svg>