<?xml version="1.0" encoding="UTF-8"?>
<svg width="18px" height="18px" viewBox="0 0 18 18" version="1.1" xmlns="http://www.w3.org/2000/svg" xmlns:xlink="http://www.w3.org/1999/xlink">
    <!-- Generator: Sketch 51.3 (57544) - http://www.bohemiancoding.com/sketch -->
    <title>Shape</title>
    <desc>Created with Sketch.</desc>
    <defs></defs>
    <g id="Page-1" stroke="none" stroke-width="1" fill="none" fill-rule="evenodd">
        <g id="dice-multiple" fill="#FFFFFF" fill-rule="nonzero">
            <path d="M16.78,0 L8.22,0 C7.55,0 7,0.55 7,1.22 L7,5 L13,5 L13,11 L16.78,11 C17.45,11 18,10.45 18,9.78 L18,1.22 C18,0.55 17.45,0 16.78,0 Z M9.44,3.67 C8.76,3.67 8.21,3.12 8.21,2.44 C8.21,1.76 8.76,1.21 9.44,1.21 C10.1193102,1.21 10.67,1.76068976 10.67,2.44 C10.67,3.12 10.12,3.67 9.44,3.67 Z M15.56,9.78 C14.88,9.79 14.33,9.24 14.32,8.56 C14.31,7.88 14.86,7.33 15.54,7.32 C16.22,7.31 16.77,7.86 16.78,8.56 C16.77,9.23 16.23,9.77 15.56,9.78 Z M15.56,3.67 C14.88,3.68 14.33,3.13 14.32,2.45 C14.31,1.77 14.86,1.22 15.54,1.21 C16.22,1.2 16.77,1.75 16.78,2.44 C16.78,3.12 16.24,3.66 15.56,3.67 Z M1.22,7 L9.78,7 C10.4537874,7 11,7.54621261 11,8.22 L11,16.78 C11,17.45 10.45,18 9.78,18 L1.22,18 C0.55,18 0,17.45 0,16.78 L0,8.22 C0,7.55 0.55,7 1.22,7 Z M5.5,11.28 C4.83,11.28 4.28,11.83 4.28,12.5 C4.28,13.17 4.83,13.72 5.5,13.72 C6.17,13.72 6.72,13.17 6.72,12.5 C6.72,11.8262126 6.17378739,11.28 5.5,11.28 Z M2.44,8.22 C1.77,8.22 1.22,8.77 1.22,9.44 C1.22,9.76356412 1.34853535,10.0738759 1.57732973,10.3026703 C1.80612411,10.5314647 2.11643588,10.66 2.44,10.66 C3.11,10.66 3.66,10.11 3.66,9.44 C3.66,8.77 3.11,8.22 2.44,8.22 Z M8.55,14.33 C7.88,14.33 7.33,14.88 7.33,15.55 C7.33,16.22 7.88,16.77 8.55,16.77 C9.22378739,16.77 9.77,16.2237874 9.77,15.55 C9.77,14.88 9.23,14.34 8.56,14.33 L8.55,14.33 Z" id="Shape"></path>
        </g>
    </g>
</svg>